<svg width="512" height="512" viewBox="0 0 512 512" fill="none" xmlns="http://www.w3.org/2000/svg">

<defs>
  <linearGradient id="blueMain" x1="0" y1="0" x2="1" y2="1">
    <stop offset="0%" stop-color="#192952"></stop>
    <stop offset="100%" stop-color="#0035A0"></stop>
  </linearGradient>

  <linearGradient id="goldAccent" x1="0" y1="0" x2="1" y2="1">
    <stop offset="0%" stop-color="#CFAC65"></stop>
    <stop offset="100%" stop-color="#F2DAB1"></stop>
  </linearGradient>

  <filter id="shadow" x="-50%" y="-50%" width="200%" height="200%">
    <feDropShadow dx="0" dy="10" stdDeviation="12" flood-opacity="0.12"></feDropShadow>
  </filter>
</defs>

<!-- CLIPBOARD -->
<g filter="url(#shadow)">
  <rect x="150" y="120" width="200" height="260" rx="26" fill="url(#blueMain)"></rect>
  <rect x="170" y="140" width="160" height="220" rx="18" fill="white"></rect>
</g>

<!-- CLIP -->
<rect x="210" y="90" width="100" height="60" rx="16" fill="url(#blueMain)"></rect>
<circle cx="260" cy="110" r="8" fill="white"></circle>

<!-- TEXTO -->
<rect x="190" y="180" width="120" height="10" rx="5" fill="#CFAC65"></rect>
<rect x="190" y="205" width="90" height="10" rx="5" fill="#E5E7EB"></rect>

<!-- CHECK -->
<path d="M210 265L235 290L300 230" fill="none" stroke="url(#blueMain)" stroke-width="8" stroke-linecap="round" stroke-linejoin="round"></path>

<!-- ENGRANAJE -->
<g transform="translate(170,300)">
  <circle cx="40" cy="40" r="20" fill="url(#blueMain)"></circle>
  <circle cx="40" cy="40" r="9" fill="white"></circle>

  <rect x="38" y="6" width="4" height="10" fill="url(#blueMain)"></rect>
  <rect x="38" y="64" width="4" height="10" fill="url(#blueMain)"></rect>
  <rect x="6" y="38" width="10" height="4" fill="url(#blueMain)"></rect>
  <rect x="64" y="38" width="10" height="4" fill="url(#blueMain)"></rect>
</g>

<!-- FLECHA -->
<path d="M230 340H285" stroke="url(#blueMain)" stroke-width="8" stroke-linecap="round"></path>
<path d="M270 328L285 340L270 352" fill="url(#blueMain)"></path>

<!-- PORTÁTIL (subida ligeramente) -->
<g transform="translate(300,340)" filter="url(#shadow)">
  
  <!-- marco dorado -->
  <rect x="0" y="0" width="70" height="42" rx="8" fill="url(#goldAccent)"></rect>
  
  <!-- pantalla blanca -->
  <rect x="4" y="4" width="62" height="32" rx="6" fill="white"></rect>

  <!-- código de barras azul MEP -->
  <g transform="translate(18,10)" fill="#192952">
    <rect x="0" y="0" width="1" height="14"></rect>
    <rect x="3" y="0" width="1" height="14"></rect>
    <rect x="6" y="0" width="2" height="14"></rect>
    <rect x="10" y="0" width="1" height="14"></rect>
    <rect x="13" y="0" width="2" height="14"></rect>
    <rect x="17" y="0" width="1" height="14"></rect>
  </g>

  <!-- base -->
  <rect x="-8" y="42" width="86" height="12" rx="6" fill="#64748B"></rect>

</g>

</svg>