<svg viewBox="44 111 14 14" xmlns="http://www.w3.org/2000/svg">
    <path d="M54.35,113.5 L54.3488,113.86298 L54.514642,114.17626 L57.799992,118.40094 L58.995612,119.14314 L58.691771,119.38311 L57.60864,119.04912 L57.343062,121.22351 L58.291676,121.84395 L57.432357,122.74847 L57.646884,124.03106 L56.888461,124.48913 L57.085598,125.41108 L56.416467,124.33608 L56.577674,123.52663 L56.327185,123.14626 L55.561804,122.73571 L55.086338,122.72251 L55.858679,123.31396 L55.878399,124.02946 L55.154765,123.94956 L53.963783,123.39756 L54.494911,122.17178 L54.432291,121.68474 L51.668797,119.46163 L51.676997,119.50203 L49.791375,118.71578 L49.474779,117.23602 L49.095568,117.13742 L47.308514,115.81653 L47.038301,115.82973 L48.914651,117.37208 L47.915013,118.91909 L46.729829,117.71418 L44.851162,116.96968 L44.664446,115.25219 L44.757216,114.79181 L45.526079,114.28156 L44.816361,113.29351 L44.449904,113.15315 L44.454504,112.89674 L45.17582,112.86714 L45.414705,111.91735 L47.992653,112.73377 L50.132245,112.79527 L52.638295,113.58964 L54.16674,113.13505 Z" fill="#cfac65"/>
</svg>