<svg width="512" height="512" viewBox="0 0 512 512" fill="none" xmlns="http://www.w3.org/2000/svg">

<defs>
  <linearGradient id="blueMain" x1="0" y1="0" x2="1" y2="1">
    <stop offset="0%" stop-color="#2E3E5C"></stop>
    <stop offset="100%" stop-color="#1F2C45"></stop>
  </linearGradient>

  <linearGradient id="screenDark" x1="0" y1="0" x2="1" y2="1">
    <stop offset="0%" stop-color="#334155"></stop>
    <stop offset="100%" stop-color="#0F172A"></stop>
  </linearGradient>

  <linearGradient id="graySoft" x1="0" y1="0" x2="1" y2="1">
    <stop offset="0%" stop-color="#F8FAFC"></stop>
    <stop offset="100%" stop-color="#E2E8F0"></stop>
  </linearGradient>

  <filter id="shadow" x="-50%" y="-50%" width="200%" height="200%">
    <feDropShadow dx="0" dy="8" stdDeviation="10" flood-opacity="0.14"></feDropShadow>
  </filter>
</defs>

<!-- MONITOR FRAME -->
<g filter="url(#shadow)">
  <rect x="74" y="48" width="364" height="270" rx="24" fill="url(#screenDark)"></rect>
  <rect x="94" y="68" width="324" height="230" rx="14" fill="white"></rect>
</g>

<!-- TOP WINDOW BAR -->
<rect x="110" y="82" width="292" height="22" rx="11" fill="#EEF2F7"></rect>
<circle cx="126" cy="93" r="5" fill="#3B82F6"></circle>
<circle cx="142" cy="93" r="5" fill="#64748B"></circle>
<circle cx="158" cy="93" r="5" fill="#CBD5E1"></circle>

<!-- LEFT ASSET LIST -->
<g filter="url(#shadow)">
  <rect x="112" y="118" width="112" height="154" rx="12" fill="url(#graySoft)"></rect>

  <rect x="126" y="136" width="18" height="18" rx="4" fill="url(#blueMain)"></rect>
  <rect x="154" y="141" width="52" height="8" rx="4" fill="#CBD5E1"></rect>

  <rect x="126" y="168" width="18" height="18" rx="4" fill="#3B82F6"></rect>
  <rect x="154" y="173" width="52" height="8" rx="4" fill="#CBD5E1"></rect>

  <rect x="126" y="200" width="18" height="18" rx="4" fill="#64748B"></rect>
  <rect x="154" y="205" width="52" height="8" rx="4" fill="#CBD5E1"></rect>

  <rect x="126" y="232" width="18" height="18" rx="4" fill="#94A3B8"></rect>
  <rect x="154" y="237" width="52" height="8" rx="4" fill="#CBD5E1"></rect>
</g>

<!-- RIGHT DETAIL PANEL -->
<g filter="url(#shadow)">
  <rect x="244" y="118" width="154" height="154" rx="12" fill="url(#graySoft)"></rect>
</g>

<!-- LAPTOP ASSET -->
<rect x="284" y="136" width="74" height="44" rx="8" fill="url(#blueMain)"></rect>
<rect x="274" y="182" width="94" height="10" rx="5" fill="#64748B"></rect>
<circle cx="321" cy="142" r="2.5" fill="#64748B"></circle>

<!-- CRUD ACTIONS -->
<g>
  <circle cx="270" cy="220" r="13" fill="#3B82F6"></circle>
  <path d="M270 214V226M264 220H276" stroke="white" stroke-width="4" stroke-linecap="round"></path>

  <circle cx="320" cy="220" r="13" fill="url(#blueMain)"></circle>
  <path d="M314 225L326 213" stroke="white" stroke-width="4" stroke-linecap="round"></path>
  <path d="M325 212L328 215" stroke="white" stroke-width="4" stroke-linecap="round"></path>

  <circle cx="370" cy="220" r="13" fill="#64748B"></circle>
  <path d="M364 215H376" stroke="white" stroke-width="4" stroke-linecap="round"></path>
</g>

<!-- BARCODE SECTION -->
<g filter="url(#shadow)">
  <rect x="244" y="244" width="154" height="28" rx="8" fill="white"></rect>
</g>

<rect x="258" y="250" width="2" height="16" fill="#111827"></rect>
<rect x="264" y="250" width="4" height="16" fill="#111827"></rect>
<rect x="272" y="250" width="2" height="16" fill="#111827"></rect>
<rect x="278" y="250" width="6" height="16" fill="#111827"></rect>
<rect x="288" y="250" width="2" height="16" fill="#111827"></rect>
<rect x="294" y="250" width="4" height="16" fill="#111827"></rect>
<rect x="302" y="250" width="2" height="16" fill="#111827"></rect>
<rect x="308" y="250" width="5" height="16" fill="#111827"></rect>
<rect x="317" y="250" width="2" height="16" fill="#111827"></rect>
<rect x="323" y="250" width="6" height="16" fill="#111827"></rect>
<rect x="333" y="250" width="2" height="16" fill="#111827"></rect>
<rect x="339" y="250" width="4" height="16" fill="#111827"></rect>
<rect x="347" y="250" width="2" height="16" fill="#111827"></rect>
<rect x="353" y="250" width="6" height="16" fill="#111827"></rect>

<!-- MONITOR BASE -->
<g filter="url(#shadow)">
  <rect x="224" y="326" width="64" height="18" rx="9" fill="#64748B"></rect>
  <rect x="182" y="344" width="148" height="18" rx="9" fill="#94A3B8"></rect>
</g>

</svg>